<svg width="24" height="24" viewBox="0 0 24 24" fill="none" xmlns="http://www.w3.org/2000/svg">
<path fill-rule="evenodd" clip-rule="evenodd" d="M17.1699 4.47C17.0988 4.47 17.0277 4.45 16.9655 4.41C15.2584 3.42 13.7826 3 12.0133 3C10.253 3 8.58152 3.47 7.06121 4.41C6.84783 4.54 6.58111 4.45 6.45664 4.21C6.34106 3.97 6.42108 3.66 6.63446 3.53C8.28813 2.52 10.1018 2 12.0133 2C13.9071 2 15.5607 2.47 17.3744 3.52C17.5967 3.65 17.6767 3.95 17.5611 4.19C17.4811 4.37 17.33 4.47 17.1699 4.47ZM4.44734 9.72C4.35844 9.72 4.26953 9.69 4.18951 9.63C3.98503 9.47 3.94057 9.16 4.08282 8.93C4.963 7.53 6.08323 6.43 7.41684 5.66C10.2085 4.04 13.7826 4.03 16.5832 5.65C17.9168 6.42 19.037 7.51 19.9172 8.9C20.0594 9.12 20.015 9.44 19.8105 9.6C19.606 9.76 19.3304 9.71 19.1881 9.48C18.388 8.22 17.3744 7.23 16.1742 6.54C13.6226 5.07 10.3597 5.07 7.81692 6.55C6.60779 7.25 5.59425 8.25 4.79408 9.51C4.72296 9.65 4.5896 9.72 4.44734 9.72ZM9.69286 21.64C9.77288 21.74 9.88846 21.79 10.004 21.79C10.1196 21.79 10.2352 21.74 10.333 21.64C10.5019 21.44 10.5019 21.13 10.333 20.93C9.64841 20.15 9.25722 19.66 8.68821 18.51C8.14588 17.43 7.86138 16.1 7.86138 14.66C7.86138 12.24 9.71953 10.27 12.0044 10.27C14.2894 10.27 16.1475 12.24 16.1475 14.66C16.1475 14.94 16.3431 15.16 16.5921 15.16C16.841 15.16 17.0366 14.94 17.0366 14.66C17.0366 11.69 14.7783 9.27 12.0044 9.27C9.23055 9.27 6.9723 11.69 6.9723 14.66C6.9723 16.27 7.29237 17.77 7.90583 19C8.50151 20.21 8.91937 20.77 9.69286 21.64ZM16.3787 19.94C15.3207 19.94 14.3872 19.64 13.6226 19.05C12.2978 18.04 11.5066 16.4 11.5066 14.66C11.5066 14.38 11.7022 14.16 11.9511 14.16C12.2 14.16 12.3956 14.38 12.3956 14.66C12.3956 16.07 13.0358 17.4 14.1204 18.22C14.7517 18.7 15.4896 18.93 16.3787 18.93C16.5921 18.93 16.9477 18.9 17.3033 18.83C17.5434 18.78 17.7745 18.96 17.819 19.24C17.8634 19.51 17.7034 19.77 17.4544 19.82C16.9477 19.93 16.5031 19.94 16.3787 19.94ZM14.4761 21.98C14.5116 21.99 14.5561 22 14.5916 22C14.7783 22 14.9651 21.85 15.0095 21.62C15.0717 21.36 14.9384 21.08 14.6983 21.01C13.4447 20.62 12.6357 20.1 11.7911 19.16C10.7153 17.96 10.1285 16.36 10.1285 14.65C10.1285 13.58 10.9553 12.71 11.9778 12.71C13.0002 12.71 13.827 13.58 13.827 14.65C13.827 16.27 15.054 17.59 16.5654 17.59C18.0768 17.59 19.3037 16.27 19.3037 14.65C19.3037 10.33 16.0142 6.82 11.9689 6.82C9.09718 6.82 6.47443 8.63 5.29196 11.42C4.89188 12.37 4.68739 13.46 4.68739 14.66C4.68739 16.01 4.90077 17.31 5.33641 18.62C5.41643 18.87 5.67426 19.01 5.90542 18.91C6.13658 18.82 6.25216 18.53 6.16325 18.27C5.62981 16.67 5.56757 15.44 5.56757 14.66C5.56757 13.62 5.74539 12.67 6.09212 11.86C7.13234 9.41 9.44392 7.83 11.9689 7.83C15.5252 7.83 18.4146 10.89 18.4146 14.66C18.4146 15.73 17.5878 16.6 16.5654 16.6C15.5429 16.6 14.7161 15.73 14.7161 14.66C14.7161 13.04 13.4892 11.72 11.9778 11.72C10.4664 11.72 9.23944 13.04 9.23944 14.66C9.23944 16.64 9.92402 18.49 11.1687 19.88C12.1378 20.95 13.0624 21.54 14.4761 21.98Z" fill="black"/>
<mask id="mask0_257_100792" style="mask-type:luminance" maskUnits="userSpaceOnUse" x="4" y="2" width="16" height="20">
<path fill-rule="evenodd" clip-rule="evenodd" d="M17.1699 4.47C17.0988 4.47 17.0277 4.45 16.9655 4.41C15.2584 3.42 13.7826 3 12.0133 3C10.253 3 8.58152 3.47 7.06121 4.41C6.84783 4.54 6.58111 4.45 6.45664 4.21C6.34106 3.97 6.42108 3.66 6.63446 3.53C8.28813 2.52 10.1018 2 12.0133 2C13.9071 2 15.5607 2.47 17.3744 3.52C17.5967 3.65 17.6767 3.95 17.5611 4.19C17.4811 4.37 17.33 4.47 17.1699 4.47ZM4.44734 9.72C4.35844 9.72 4.26953 9.69 4.18951 9.63C3.98503 9.47 3.94057 9.16 4.08282 8.93C4.963 7.53 6.08323 6.43 7.41684 5.66C10.2085 4.04 13.7826 4.03 16.5832 5.65C17.9168 6.42 19.037 7.51 19.9172 8.9C20.0594 9.12 20.015 9.44 19.8105 9.6C19.606 9.76 19.3304 9.71 19.1881 9.48C18.388 8.22 17.3744 7.23 16.1742 6.54C13.6226 5.07 10.3597 5.07 7.81692 6.55C6.60779 7.25 5.59425 8.25 4.79408 9.51C4.72296 9.65 4.5896 9.72 4.44734 9.72ZM9.69286 21.64C9.77288 21.74 9.88846 21.79 10.004 21.79C10.1196 21.79 10.2352 21.74 10.333 21.64C10.5019 21.44 10.5019 21.13 10.333 20.93C9.64841 20.15 9.25722 19.66 8.68821 18.51C8.14588 17.43 7.86138 16.1 7.86138 14.66C7.86138 12.24 9.71953 10.27 12.0044 10.27C14.2894 10.27 16.1475 12.24 16.1475 14.66C16.1475 14.94 16.3431 15.16 16.5921 15.16C16.841 15.16 17.0366 14.94 17.0366 14.66C17.0366 11.69 14.7783 9.27 12.0044 9.27C9.23055 9.27 6.9723 11.69 6.9723 14.66C6.9723 16.27 7.29237 17.77 7.90583 19C8.50151 20.21 8.91937 20.77 9.69286 21.64ZM16.3787 19.94C15.3207 19.94 14.3872 19.64 13.6226 19.05C12.2978 18.04 11.5066 16.4 11.5066 14.66C11.5066 14.38 11.7022 14.16 11.9511 14.16C12.2 14.16 12.3956 14.38 12.3956 14.66C12.3956 16.07 13.0358 17.4 14.1204 18.22C14.7517 18.7 15.4896 18.93 16.3787 18.93C16.5921 18.93 16.9477 18.9 17.3033 18.83C17.5434 18.78 17.7745 18.96 17.819 19.24C17.8634 19.51 17.7034 19.77 17.4544 19.82C16.9477 19.93 16.5031 19.94 16.3787 19.94ZM14.4761 21.98C14.5116 21.99 14.5561 22 14.5916 22C14.7783 22 14.9651 21.85 15.0095 21.62C15.0717 21.36 14.9384 21.08 14.6983 21.01C13.4447 20.62 12.6357 20.1 11.7911 19.16C10.7153 17.96 10.1285 16.36 10.1285 14.65C10.1285 13.58 10.9553 12.71 11.9778 12.71C13.0002 12.71 13.827 13.58 13.827 14.65C13.827 16.27 15.054 17.59 16.5654 17.59C18.0768 17.59 19.3037 16.27 19.3037 14.65C19.3037 10.33 16.0142 6.82 11.9689 6.82C9.09718 6.82 6.47443 8.63 5.29196 11.42C4.89188 12.37 4.68739 13.46 4.68739 14.66C4.68739 16.01 4.90077 17.31 5.33641 18.62C5.41643 18.87 5.67426 19.01 5.90542 18.91C6.13658 18.82 6.25216 18.53 6.16325 18.27C5.62981 16.67 5.56757 15.44 5.56757 14.66C5.56757 13.62 5.74539 12.67 6.09212 11.86C7.13234 9.41 9.44392 7.83 11.9689 7.83C15.5252 7.83 18.4146 10.89 18.4146 14.66C18.4146 15.73 17.5878 16.6 16.5654 16.6C15.5429 16.6 14.7161 15.73 14.7161 14.66C14.7161 13.04 13.4892 11.72 11.9778 11.72C10.4664 11.72 9.23944 13.04 9.23944 14.66C9.23944 16.64 9.92402 18.49 11.1687 19.88C12.1378 20.95 13.0624 21.54 14.4761 21.98Z" fill="white"/>
</mask>
<g mask="url(#mask0_257_100792)">
<rect width="24" height="24" fill="#00AB4E"/>
</g>
</svg>
