<svg width="90" height="90" viewBox="0 0 90 90" fill="none" xmlns="http://www.w3.org/2000/svg">
<path fill-rule="evenodd" clip-rule="evenodd" d="M44.9882 19.1815C59.3069 19.1811 70.846 30.7058 70.8563 45.0178C70.8668 59.2531 59.2949 70.864 45.0912 70.8703C30.7207 70.8765 19.18 59.3385 19.1881 44.9727C19.196 30.7082 30.7262 19.1821 44.9882 19.1815ZM56.5623 36.7653C57.1418 37.0944 57.4682 37.2687 57.7834 37.4609C58.2962 37.7736 58.7623 37.9147 59.1593 37.2753C59.581 36.5963 59.1593 36.3261 58.6428 36.0331C53.4667 33.0977 47.9697 31.5905 41.9768 32.24C38.1938 32.65 34.6981 33.887 31.4632 35.8726C30.9898 36.1632 30.3739 36.4249 30.8566 37.1899C31.347 37.9673 31.8541 37.5905 32.3838 37.2513C32.6773 37.0632 32.9934 36.9102 33.4854 36.6388C33.2886 37.1207 33.1835 37.3933 33.0673 37.6609C30.8801 42.6963 28.6931 47.7314 26.5025 52.7652C25.7519 54.4897 26.0322 55.4225 27.6634 56.3991C28.1507 56.6907 28.6779 56.9398 29.2167 57.1181C32.5476 58.2203 35.9084 58.1932 39.2792 57.3094C40.065 57.1034 40.8015 56.7652 41.4883 56.3317C42.9683 55.3981 43.2402 54.4375 42.5394 52.8294C40.1854 47.4269 37.8569 42.0128 35.4748 36.6226C35.1482 35.8839 35.348 35.6722 36.0182 35.4134C41.993 33.1058 47.933 33.2452 53.8803 35.5289C54.6956 35.842 54.7507 36.1735 54.4207 36.9199C52.1333 42.0934 49.89 47.2862 47.6318 52.4726C46.7055 54.6 47.0746 55.6747 49.1759 56.6832C51.7808 57.9334 54.5604 58.1019 57.3823 57.8449C59.1725 57.6818 60.9201 57.3246 62.4716 56.341C63.9585 55.3989 64.2451 54.4359 63.5495 52.8445C62.4301 50.2837 61.3159 47.7205 60.2022 45.1573C59.0255 42.4477 57.8514 39.7374 56.5623 36.7653Z" fill="#00AB4E"/>
<path fill-rule="evenodd" clip-rule="evenodd" d="M44.927 90C32.0073 89.826 21.0043 85.1237 12.1401 75.7342C5.007 68.1785 1.04179 59.113 0.172019 48.7316C0.0932618 47.7921 0.0898199 46.8465 0.00681068 45.9075C-0.0377309 45.4043 0.132742 45.2774 0.620472 45.2892C1.93364 45.3209 3.24883 45.322 4.56199 45.2865C5.18902 45.2697 5.0645 45.6733 5.07564 46.0257C5.18679 49.5798 5.69558 53.0776 6.73542 56.4769C8.67095 62.8049 11.9433 68.3542 16.6133 73.0615C21.736 78.2254 27.7999 81.7997 34.8434 83.6204C42.3618 85.5639 49.8549 85.4101 57.2637 82.9934C66.3241 80.0382 73.4615 74.5438 78.617 66.5519C83.1683 59.4959 85.2391 51.7301 84.8825 43.3242C84.4608 33.3751 80.7857 24.7538 73.9816 17.5654C67.2244 10.4266 58.86 6.30827 49.0294 5.3184C40.8834 4.49813 33.1943 6.02716 25.9948 9.93565C25.4402 10.2368 25.1027 10.2362 24.7725 9.66243C24.2014 8.67033 23.6181 7.68167 22.9777 6.73349C22.5902 6.15992 22.7392 5.8954 23.2958 5.58596C26.705 3.6904 30.3084 2.27572 34.0868 1.34697C41.079 -0.371702 48.1125 -0.459538 55.1316 1.1634C63.8686 3.18363 71.3826 7.43152 77.5498 13.9397C85.2178 22.0317 89.3926 31.673 89.9398 42.8273C90.4743 53.7184 87.4491 63.5746 80.8444 72.222C73.7395 81.5243 64.3394 87.2273 52.7877 89.3301C50.1899 89.8035 47.5739 89.9992 44.927 90Z" fill="#BFD730"/>
<path fill-rule="evenodd" clip-rule="evenodd" d="M45.1122 10.0689C57.9614 10.5032 67.9442 16.0239 74.9257 26.8959C75.3132 27.4992 75.2462 27.7923 74.6218 28.1347C73.7378 28.6196 72.8723 29.1576 72.0693 29.7654C71.3445 30.3138 70.9649 30.2738 70.4652 29.4421C68.0088 25.3541 64.6991 22.0925 60.6538 19.5653C49.5419 12.6238 34.6546 13.9863 24.9948 22.8852C18.0864 29.2495 14.8146 37.1697 15.1839 46.5446C15.7379 60.621 26.788 72.8215 40.7864 74.5298C53.5145 76.0834 63.4208 71.2544 70.4784 60.5765C70.8127 60.0707 71.023 59.941 71.5535 60.3221C72.5101 61.01 73.5032 61.6536 74.5201 62.2488C75.1253 62.603 75.0723 62.9197 74.7374 63.4376C69.1604 72.0648 61.3865 77.5377 51.2597 79.3685C35.5896 82.2015 20.491 74.4299 13.4604 60.1053C5.35137 43.5841 12.1551 22.8059 28.4763 14.2208C33.6778 11.485 39.1932 10.045 45.1122 10.0689Z" fill="#72BF44"/>
<path fill-rule="evenodd" clip-rule="evenodd" d="M56.5623 36.7653C57.8514 39.7375 59.0255 42.4477 60.2024 45.157C61.3161 47.7203 62.4303 50.2835 63.5497 52.8443C64.2453 54.4357 63.9586 55.3986 62.4718 56.3407C60.9203 57.3241 59.1727 57.6815 57.3825 57.8447C54.5606 58.1017 51.781 57.9331 49.1761 56.683C47.0748 55.6747 46.7057 54.5998 47.6319 52.4723C49.8902 47.2859 52.1335 42.0931 54.4209 36.9197C54.7509 36.1733 54.6958 35.8418 53.8805 35.5287C47.9332 33.245 41.9934 33.1053 36.0183 35.4131C35.348 35.6718 35.1484 35.8835 35.4749 36.6224C37.8571 42.0126 40.1854 47.4266 42.5396 52.8291C43.2401 54.4371 42.9684 55.3976 41.4884 56.3314C40.8017 56.7649 40.0651 57.1031 39.2794 57.3092C35.9086 58.1928 32.5475 58.2201 29.2168 57.1179C28.6779 56.9396 28.1509 56.6907 27.6636 56.3988C26.0323 55.4223 25.7521 54.4895 26.5026 52.765C28.6933 47.7312 30.8803 42.696 33.0675 37.6606C33.1837 37.3931 33.2888 37.1205 33.4855 36.6386C32.9936 36.9102 32.6775 37.0632 32.384 37.251C31.8541 37.5904 31.3471 37.9671 30.8568 37.1897C30.3741 36.4249 30.99 36.163 31.4634 35.8723C34.6983 33.8865 38.194 32.6497 41.977 32.2397C47.9699 31.5903 53.4667 33.0974 58.643 36.0328C59.1595 36.3257 59.5812 36.5959 59.1595 37.2751C58.7625 37.9144 58.2964 37.7734 57.7836 37.4607C57.4681 37.2686 57.1418 37.0942 56.5623 36.7653ZM34.5851 38.2946C34.449 38.4239 34.38 38.4606 34.3555 38.5168C32.4068 42.9853 30.4686 47.4585 28.5082 51.9219C28.2142 52.5912 28.5756 52.5598 29.0394 52.5586C32.339 52.5507 35.6387 52.554 38.9384 52.5536C39.5012 52.5536 40.0641 52.5536 40.778 52.5536C38.6784 47.7202 36.6403 43.027 34.5851 38.2946ZM55.5891 38.3122C55.4524 38.4383 55.3508 38.4897 55.3158 38.5701C53.3865 43.01 51.4686 47.4548 49.5313 51.8914C49.2662 52.4985 49.5147 52.5625 50.0378 52.5609C53.6744 52.5481 57.311 52.5394 60.9473 52.5657C61.736 52.5714 61.6682 52.2903 61.4168 51.7339C60.7529 50.2634 60.1368 48.7712 59.4946 47.2911C58.2021 44.3122 56.9043 41.3355 55.5891 38.3122Z" fill="#F3FAF6"/>
<path fill-rule="evenodd" clip-rule="evenodd" d="M34.5849 38.2923C36.6403 43.0247 38.6783 47.7176 40.7776 52.5512C40.0637 52.5512 39.5009 52.5512 38.9381 52.5512C35.6385 52.5516 32.3388 52.5484 29.0391 52.5563C28.5753 52.5575 28.2139 52.5887 28.5079 51.9196C30.4683 47.4559 32.4065 42.983 34.3551 38.5145C34.3796 38.4584 34.4487 38.4216 34.5849 38.2923Z" fill="#00AB4E"/>
<path fill-rule="evenodd" clip-rule="evenodd" d="M55.5889 38.3099C56.9041 41.3331 58.2017 44.3098 59.4944 47.2888C60.1366 48.7688 60.7527 50.2612 61.4166 51.7316C61.6678 52.2879 61.7357 52.5692 60.9471 52.5634C57.3109 52.5369 53.6742 52.5458 50.0376 52.5585C49.5145 52.5603 49.266 52.4962 49.5311 51.889C51.4684 47.4525 53.3863 43.0077 55.3156 38.5677C55.3506 38.4874 55.4523 38.436 55.5889 38.3099Z" fill="#00AB4E"/>
</svg>
