<svg width="18" height="14" viewBox="0 0 18 14" fill="none" xmlns="http://www.w3.org/2000/svg">
<g id="Iconly/Light-Outline/Show">
<g id="Show">
<path id="Combined-Shape" fill-rule="evenodd" clip-rule="evenodd" d="M9.00242 0.333755C12.4491 0.336255 15.5441 2.75209 17.2824 6.79709C17.3508 6.95459 17.3508 7.13292 17.2824 7.29042C15.5449 11.3363 12.4491 13.7521 9.00242 13.7546H8.99742C5.55075 13.7521 2.45575 11.3363 0.717419 7.29042C0.649919 7.13292 0.649919 6.95459 0.717419 6.79709C2.45575 2.75209 5.55159 0.336255 8.99742 0.333755H9.00242ZM8.99992 1.58376C6.13659 1.58459 3.52492 3.62042 1.97492 7.04376C3.52492 10.4679 6.13575 12.5038 8.99992 12.5046C11.8641 12.5038 14.4749 10.4679 16.0249 7.04376C14.4749 3.62042 11.8641 1.58459 8.99992 1.58376ZM8.99967 3.78442C10.7972 3.78442 12.2597 5.24692 12.2597 7.04442C12.2597 8.84109 10.7972 10.3028 8.99967 10.3028C7.20217 10.3028 5.7405 8.84109 5.7405 7.04442C5.7405 5.24692 7.20217 3.78442 8.99967 3.78442ZM8.99967 5.03442C7.89134 5.03442 6.9905 5.93609 6.9905 7.04442C6.9905 8.15192 7.89134 9.05276 8.99967 9.05276C10.108 9.05276 11.0097 8.15192 11.0097 7.04442C11.0097 5.93609 10.108 5.03442 8.99967 5.03442Z" fill="#3C3C3E"/>
</g>
</g>
</svg>
