<svg width="18" height="16" viewBox="0 0 18 16" fill="none" xmlns="http://www.w3.org/2000/svg">
<g id="Hide">
<path id="Stroke 1" d="M7.13381 9.97233C6.65464 9.494 6.36298 8.844 6.36298 8.11483C6.36298 6.654 7.53964 5.4765 8.99964 5.4765C9.72214 5.4765 10.3871 5.769 10.858 6.24733" stroke="#3C3C3E" stroke-width="1.5" stroke-linecap="round" stroke-linejoin="round"/>
<path id="Stroke 3" d="M11.5873 8.58241C11.394 9.65741 10.5473 10.5057 9.47314 10.7007" stroke="#3C3C3E" stroke-width="1.5" stroke-linecap="round" stroke-linejoin="round"/>
<path id="Stroke 5" d="M4.54549 12.5602C3.22299 11.5219 2.10299 10.0052 1.29132 8.11441C2.11132 6.21525 3.23882 4.69025 4.56965 3.64358C5.89215 2.59691 7.41799 2.02858 8.99965 2.02858C10.5905 2.02858 12.1155 2.60525 13.4463 3.65941" stroke="#3C3C3E" stroke-width="1.5" stroke-linecap="round" stroke-linejoin="round"/>
<path id="Stroke 7" d="M15.2063 5.49234C15.7796 6.25401 16.2838 7.13317 16.708 8.11401C15.0688 11.9115 12.1721 14.199 8.99965 14.199C8.28048 14.199 7.57132 14.0823 6.88965 13.8548" stroke="#3C3C3E" stroke-width="1.5" stroke-linecap="round" stroke-linejoin="round"/>
<path id="Stroke 9" d="M15.5725 1.54134L2.42749 14.6863" stroke="#3C3C3E" stroke-width="1.5" stroke-linecap="round" stroke-linejoin="round"/>
</g>
</svg>
